<?xml version="1.0" encoding="UTF-8" standalone="no"?>
<!DOCTYPE svg PUBLIC "-//W3C//DTD SVG 1.1//EN" "http://www.w3.org/Graphics/SVG/1.1/DTD/svg11.dtd">
<svg xmlns="http://www.w3.org/2000/svg" version="1.1" viewBox="0.00 0.00 1492.00 324.00">

<path fill="#9e3c6d" d="
  M 631.74 145.03
  Q 631.32 145.87 632.26 145.82
  L 694.77 142.64
  Q 695.48 142.61 695.12 141.99
  Q 694.07 140.19 692.18 137.52
  Q 685.03 127.47 678.27 119.15
  A 0.58 0.58 0.0 0 1 678.49 118.25
  L 698.06 109.62
  Q 698.50 109.43 698.82 109.80
  Q 715.79 129.60 729.44 151.42
  Q 734.12 158.89 737.93 166.86
  A 0.51 0.50 64.0 0 1 737.71 167.52
  L 717.25 178.34
  A 0.46 0.46 0.0 0 1 716.63 178.14
  L 709.51 164.35
  A 1.22 1.22 0.0 0 0 708.35 163.70
  Q 644.89 168.03 584.07 171.10
  A 0.75 0.74 84.9 0 1 583.30 170.45
  L 580.49 149.08
  Q 580.37 148.18 581.28 148.14
  L 605.52 147.17
  Q 606.13 147.15 606.42 146.61
  Q 609.35 141.13 611.80 135.51
  Q 619.47 117.99 624.97 100.82
  A 0.44 0.44 0.0 0 0 624.55 100.25
  L 574.25 100.25
  A 0.75 0.75 0.0 0 1 573.50 99.50
  L 573.50 78.75
  Q 573.50 78.25 574.00 78.25
  L 643.25 78.25
  Q 643.75 78.25 643.75 77.75
  L 643.75 53.00
  Q 643.75 52.50 643.24 52.50
  L 587.75 52.50
  A 0.25 0.25 0.0 0 1 587.50 52.25
  L 587.50 31.25
  Q 587.50 30.75 588.00 30.75
  L 643.25 30.75
  Q 643.75 30.75 643.75 30.25
  L 643.75 7.25
  A 0.50 0.50 0.0 0 1 644.25 6.75
  L 665.75 6.75
  A 0.76 0.76 0.0 0 1 666.51 7.51
  L 666.50 29.75
  A 1.00 1.00 0.0 0 0 667.50 30.75
  L 725.25 30.75
  Q 725.75 30.75 725.75 31.25
  L 725.75 51.75
  Q 725.75 52.50 725.00 52.50
  L 667.00 52.50
  Q 666.50 52.50 666.50 53.00
  L 666.50 77.50
  A 0.75 0.75 0.0 0 0 667.25 78.25
  L 738.25 78.25
  Q 738.75 78.25 738.75 78.75
  L 738.75 99.75
  Q 738.75 100.25 738.25 100.25
  L 653.43 100.25
  Q 652.92 100.25 652.72 100.71
  Q 649.38 108.41 645.76 116.25
  Q 645.18 117.50 644.73 118.75
  Q 644.32 119.89 643.70 121.13
  Q 637.67 133.19 631.74 145.03
  Z"
/>
<path fill="#a83c68" d="
  M 511.50 67.71
  L 511.50 80.50
  A 0.75 0.75 0.0 0 1 510.75 81.25
  L 427.00 81.25
  Q 426.50 81.25 426.50 80.75
  L 426.49 68.31
  A 0.19 0.19 0.0 0 0 426.19 68.15
  Q 418.31 73.33 410.44 78.20
  C 406.07 80.91 401.42 82.96 396.93 85.41
  A 1.59 1.59 0.0 0 1 394.75 84.72
  Q 394.54 84.30 394.32 83.89
  Q 390.10 75.98 383.50 68.53
  Q 382.43 67.32 384.02 67.57
  Q 384.49 67.64 384.78 67.26
  Q 385.07 66.88 385.51 66.67
  Q 407.46 56.43 426.44 40.12
  C 437.65 30.48 447.95 19.72 455.82 7.92
  A 2.09 2.09 0.0 0 1 457.55 7.00
  L 478.19 7.00
  A 1.83 1.83 0.0 0 1 479.63 7.70
  C 482.53 11.39 485.29 15.24 488.59 18.63
  C 490.94 21.06 492.90 23.78 495.43 26.17
  Q 512.68 42.47 526.87 50.56
  Q 529.70 52.17 532.62 54.00
  C 537.24 56.88 542.16 58.90 547.04 61.09
  Q 549.18 62.06 551.38 62.87
  Q 553.33 63.60 555.32 64.44
  Q 555.94 64.70 555.49 65.21
  Q 548.84 72.70 542.63 83.54
  A 1.24 1.23 -62.3 0 1 541.03 84.04
  C 531.22 79.38 521.50 73.68 512.23 67.33
  Q 511.50 66.83 511.50 67.71
  Z
  M 471.38 31.27
  C 470.54 30.28 470.18 29.13 469.27 28.24
  Q 468.77 27.75 468.33 28.29
  Q 466.21 30.88 463.86 33.86
  Q 454.42 45.83 440.32 57.30
  Q 438.20 59.03 436.18 60.74
  A 0.43 0.43 0.0 0 0 436.46 61.50
  L 502.98 61.50
  Q 503.81 61.50 503.15 61.00
  Q 498.98 57.77 494.88 54.50
  Q 492.83 52.86 490.97 51.04
  C 487.87 47.99 484.42 45.57 481.37 42.37
  Q 476.28 37.02 471.38 31.27
  Z"
/>
<path fill="#bc3d5e" d="
  M 29.27 84.40
  L 17.96 97.89
  Q 17.68 98.23 17.51 97.83
  Q 13.11 87.29 7.00 77.05
  Q 6.87 76.83 6.66 76.71
  Q 6.23 76.46 6.10 75.86
  A 0.94 0.92 62.5 0 1 6.36 75.01
  Q 13.69 67.68 20.38 58.48
  Q 28.30 47.61 33.21 38.39
  Q 36.96 31.32 40.70 23.66
  C 42.92 19.09 44.55 14.42 46.55 9.75
  Q 46.86 9.05 46.80 8.27
  A 0.60 0.60 0.0 0 1 47.57 7.66
  L 67.63 13.84
  Q 67.90 13.92 67.79 14.18
  Q 65.15 20.43 62.42 26.93
  Q 59.80 33.13 56.77 39.08
  Q 54.21 44.12 51.56 49.12
  Q 50.49 51.14 50.49 53.27
  Q 50.53 114.22 50.49 175.97
  Q 50.49 176.50 49.95 176.50
  L 30.50 176.50
  A 0.75 0.75 0.0 0 1 29.75 175.75
  L 29.75 84.58
  Q 29.75 83.83 29.27 84.40
  Z"
/>
<path fill="#bc3d5e" d="
  M 89.46 60.00
  Q 82.23 74.51 72.88 86.89
  Q 72.56 87.31 72.18 86.95
  Q 64.48 79.64 55.62 73.32
  Q 55.17 73.00 55.53 72.59
  Q 66.05 60.28 73.51 43.68
  Q 81.17 26.64 85.73 8.60
  A 1.19 1.18 -76.3 0 1 87.13 7.74
  L 106.60 12.15
  Q 107.12 12.27 106.99 12.79
  Q 103.67 25.34 98.96 38.31
  A 0.89 0.89 0.0 0 0 99.80 39.51
  Q 127.11 39.48 159.87 39.50
  C 161.89 39.50 163.78 38.49 165.79 38.87
  Q 171.20 39.89 176.94 41.07
  Q 177.98 41.28 179.05 41.27
  A 0.76 0.76 0.0 0 1 179.81 42.14
  Q 176.69 63.67 172.27 83.22
  Q 172.15 83.78 171.58 83.69
  L 154.26 80.80
  Q 153.81 80.73 153.87 80.28
  L 156.65 59.86
  A 0.31 0.31 0.0 0 0 156.34 59.51
  L 132.75 59.49
  Q 132.25 59.49 132.25 59.99
  Q 132.24 104.03 132.26 152.04
  Q 132.26 158.57 130.94 163.64
  Q 130.03 167.15 127.16 169.96
  Q 124.75 172.33 121.07 173.78
  Q 116.00 175.78 110.38 176.29
  Q 104.05 176.87 97.60 176.99
  A 0.62 0.62 0.0 0 1 96.98 176.48
  Q 94.96 165.45 90.10 155.57
  A 0.23 0.23 0.0 0 1 90.30 155.24
  L 108.25 155.25
  Q 110.75 155.26 110.75 152.75
  L 110.75 60.00
  A 0.50 0.49 0.0 0 0 110.25 59.51
  L 90.26 59.50
  Q 89.71 59.50 89.46 60.00
  Z"
/>
<path fill="#9e3c6d" d="
  M 767.63 18.91
  A 0.60 0.59 52.3 0 1 767.74 18.01
  L 782.18 8.37
  A 1.01 1.01 0.0 0 1 783.46 8.49
  C 788.10 13.07 792.34 17.93 796.79 22.58
  Q 804.02 30.14 810.35 37.61
  Q 810.92 38.28 810.19 38.79
  Q 802.85 43.88 795.80 48.98
  Q 794.99 49.56 794.22 49.72
  Q 793.39 49.89 793.03 49.01
  Q 792.64 48.06 792.02 47.27
  C 784.28 37.34 776.07 28.23 767.63 18.91
  Z"
/>
<path fill="#783c80" d="
  M 1309.68 103.49
  L 1237.20 103.50
  Q 1236.63 103.50 1236.75 102.95
  Q 1237.41 100.03 1237.82 97.04
  Q 1241.45 70.57 1243.26 43.33
  Q 1243.30 42.69 1243.94 42.72
  L 1262.34 43.66
  A 1.29 1.29 0.0 0 1 1263.56 45.08
  L 1259.69 84.57
  Q 1259.62 85.25 1260.30 85.25
  L 1290.77 85.25
  Q 1291.28 85.25 1291.34 84.74
  L 1296.55 36.05
  Q 1296.61 35.50 1296.05 35.50
  L 1235.00 35.50
  Q 1234.50 35.50 1234.50 35.00
  L 1234.50 16.53
  Q 1234.50 16.00 1235.02 16.00
  Q 1262.52 15.98 1297.20 16.02
  C 1300.51 16.02 1303.62 15.22 1306.87 15.60
  Q 1312.49 16.27 1318.21 16.46
  Q 1318.70 16.48 1318.66 16.97
  Q 1316.27 50.12 1311.95 84.66
  Q 1311.87 85.25 1312.47 85.25
  L 1331.03 85.25
  Q 1331.83 85.25 1331.78 86.05
  Q 1330.09 111.72 1327.25 134.00
  C 1326.08 143.18 1324.45 152.84 1321.08 161.64
  Q 1319.25 166.45 1315.59 169.81
  Q 1309.84 175.09 1300.96 175.63
  Q 1290.53 176.28 1281.33 175.93
  Q 1280.82 175.91 1280.77 175.41
  Q 1279.65 165.70 1275.45 156.84
  Q 1275.35 156.62 1275.59 156.64
  Q 1284.53 157.36 1294.57 157.29
  Q 1297.45 157.26 1299.00 155.59
  Q 1300.84 153.62 1302.00 151.06
  Q 1303.91 146.86 1305.08 140.87
  Q 1308.60 122.89 1309.79 103.61
  A 0.11 0.11 0.0 0 0 1309.68 103.49
  Z"
/>
<path fill="#9e3c6d" d="
  M 897.87 35.99
  L 815.24 35.99
  A 0.25 0.24 90.0 0 1 815.00 35.74
  L 815.00 16.25
  Q 815.00 15.75 815.50 15.75
  L 919.71 15.75
  A 0.29 0.29 0.0 0 1 920.00 16.04
  Q 920.02 84.59 919.98 152.83
  C 919.98 161.41 917.62 169.29 908.83 172.48
  Q 903.61 174.38 897.24 175.01
  Q 887.85 175.95 877.90 175.73
  A 0.81 0.79 85.1 0 1 877.13 175.07
  Q 875.27 165.10 870.98 155.66
  A 0.76 0.75 78.1 0 1 871.67 154.59
  L 894.67 154.82
  A 3.80 3.79 0.2 0 0 898.50 151.03
  L 898.50 36.62
  Q 898.50 35.99 897.87 35.99
  Z"
/>
<path fill="#a83c68" d="
  M 274.79 41.25
  L 203.50 41.25
  Q 203.00 41.25 203.00 40.75
  L 203.00 19.50
  A 0.50 0.50 0.0 0 1 203.50 19.00
  L 360.25 19.00
  A 0.50 0.50 0.0 0 1 360.75 19.50
  L 360.75 40.75
  Q 360.75 41.25 360.25 41.25
  L 304.89 41.25
  Q 304.39 41.25 304.12 41.67
  L 294.02 57.38
  Q 293.75 57.81 293.75 58.31
  L 293.75 75.72
  Q 293.75 77.18 294.78 76.14
  Q 297.29 73.59 300.03 71.56
  C 302.46 69.75 304.14 67.37 306.81 65.99
  Q 307.35 65.71 307.84 66.07
  Q 324.76 78.35 339.14 89.62
  Q 354.48 101.65 367.47 114.35
  A 0.52 0.52 0.0 0 1 367.45 115.11
  L 349.71 131.11
  A 0.56 0.56 0.0 0 1 348.91 131.07
  Q 341.05 122.35 332.17 114.23
  Q 315.46 98.95 294.30 82.67
  Q 293.75 82.24 293.75 82.94
  L 293.75 176.01
  Q 293.75 176.52 293.24 176.51
  L 270.51 176.50
  Q 270.02 176.50 270.02 176.01
  L 270.01 89.00
  Q 270.01 87.68 269.09 88.62
  Q 258.62 99.45 246.36 109.55
  Q 232.29 121.14 214.63 130.91
  Q 213.54 131.51 212.34 131.86
  Q 211.88 131.99 211.63 131.58
  Q 205.48 121.69 197.34 113.00
  A 0.30 0.30 0.0 0 1 197.43 112.52
  Q 215.59 103.91 231.66 90.88
  C 248.77 77.00 263.56 60.50 275.16 41.91
  Q 275.57 41.25 274.79 41.25
  Z"
/>
<path fill="#783c80" d="
  M 1190.78 145.48
  L 1171.93 145.51
  A 0.43 0.43 0.0 0 1 1171.50 145.08
  L 1171.50 23.18
  A 0.43 0.43 0.0 0 1 1171.93 22.75
  L 1225.32 22.75
  A 0.43 0.43 0.0 0 1 1225.75 23.18
  L 1225.75 128.82
  A 0.43 0.43 0.0 0 1 1225.32 129.25
  L 1191.70 129.27
  A 0.43 0.43 0.0 0 0 1191.27 129.70
  L 1191.21 145.05
  A 0.43 0.43 0.0 0 1 1190.78 145.48
  Z
  M 1206.75 42.75
  A 0.26 0.26 0.0 0 0 1206.49 42.49
  L 1191.51 42.49
  A 0.26 0.26 0.0 0 0 1191.25 42.75
  L 1191.25 109.25
  A 0.26 0.26 0.0 0 0 1191.51 109.51
  L 1206.49 109.51
  A 0.26 0.26 0.0 0 0 1206.75 109.25
  L 1206.75 42.75
  Z"
/>
<path fill="#783c80" d="
  M 1458.24 59.41
  C 1456.59 45.18 1439.33 42.80 1428.40 45.17
  Q 1425.28 45.84 1421.78 47.13
  Q 1419.21 48.07 1416.99 49.64
  Q 1415.46 50.72 1413.89 51.69
  C 1411.24 53.35 1409.00 55.94 1406.89 58.21
  Q 1406.54 58.59 1406.12 58.28
  C 1401.09 54.62 1396.43 49.54 1391.82 45.01
  A 0.50 0.49 42.9 0 1 1391.79 44.33
  Q 1398.36 36.85 1406.44 31.76
  Q 1415.12 26.29 1424.50 24.27
  Q 1440.55 20.82 1456.16 24.85
  Q 1466.39 27.48 1473.61 33.92
  C 1483.68 42.89 1488.20 61.86 1479.17 73.58
  Q 1475.36 78.52 1470.26 82.64
  Q 1464.83 87.03 1458.95 91.50
  C 1451.90 96.86 1446.33 104.32 1447.05 113.63
  Q 1447.10 114.25 1446.48 114.25
  L 1424.17 114.25
  Q 1423.58 114.25 1423.53 113.66
  Q 1422.42 100.85 1431.10 91.65
  C 1434.76 87.78 1438.61 84.29 1442.85 81.07
  Q 1447.75 77.34 1452.94 72.40
  Q 1459.07 66.57 1458.24 59.41
  Z"
/>
<rect fill="#8b3c76" x="1112.88" y="24.48" width="22.58" height="136.48" rx="0.27"/>
<path fill="#8b3c76" d="
  M 1041.02 133.25
  L 986.86 133.25
  Q 986.27 133.25 986.02 133.78
  L 973.61 160.16
  Q 973.22 161.00 972.29 161.00
  L 946.02 161.00
  Q 945.50 161.00 945.73 160.53
  L 1013.47 25.05
  A 0.46 0.45 -44.8 0 1 1014.28 25.05
  L 1082.01 160.52
  A 0.33 0.33 0.0 0 1 1081.72 161.00
  L 1058.04 161.01
  A 0.97 0.96 71.9 0 1 1057.26 160.61
  Q 1055.69 158.39 1054.44 156.10
  Q 1048.20 144.66 1041.94 133.78
  A 1.07 1.06 74.7 0 0 1041.02 133.25
  Z
  M 1030.54 108.23
  Q 1030.71 107.37 1029.92 106.96
  Q 1029.46 106.72 1029.53 106.21
  Q 1029.62 105.42 1028.92 104.95
  A 1.19 1.17 -87.4 0 1 1028.48 104.46
  L 1014.29 76.06
  Q 1013.84 75.17 1013.44 76.09
  L 999.19 109.29
  Q 998.77 110.25 999.82 110.25
  L 1030.67 110.25
  Q 1031.56 110.25 1031.42 109.36
  Q 1031.38 109.13 1031.20 109.11
  Q 1030.39 109.02 1030.54 108.23
  Z"
/>
<rect fill="#9e3c6d" x="766.01" y="50.50" width="21.24" height="126.00" rx="0.27"/>
<path fill="#9e3c6d" d="
  M 827.47 132.05
  L 827.53 141.45
  A 0.31 0.31 0.0 0 1 827.22 141.76
  L 808.31 141.75
  A 0.31 0.31 0.0 0 1 808.00 141.44
  L 808.00 63.06
  A 0.31 0.31 0.0 0 1 808.31 62.75
  L 875.94 62.75
  A 0.31 0.31 0.0 0 1 876.25 63.06
  L 876.25 131.45
  A 0.31 0.31 0.0 0 1 875.94 131.76
  L 827.78 131.74
  A 0.31 0.31 0.0 0 0 827.47 132.05
  Z
  M 855.25 82.49
  A 0.49 0.49 0.0 0 0 854.76 82.00
  L 828.00 82.00
  A 0.49 0.49 0.0 0 0 827.51 82.49
  L 827.51 111.75
  A 0.49 0.49 0.0 0 0 828.00 112.24
  L 854.76 112.24
  A 0.49 0.49 0.0 0 0 855.25 111.75
  L 855.25 82.49
  Z"
/>
<path fill="#bc3d5e" d="
  M 159.91 89.99
  Q 160.22 90.38 160.50 90.98
  Q 171.82 115.30 177.30 141.45
  Q 177.65 143.12 177.72 144.82
  Q 177.75 145.33 177.27 145.50
  L 157.82 152.24
  Q 157.27 152.43 157.17 151.85
  Q 152.95 126.35 143.04 102.35
  Q 142.47 100.99 141.97 99.66
  Q 141.03 97.18 139.53 94.59
  A 1.78 1.78 0.0 0 1 140.50 92.01
  L 157.53 86.20
  A 0.95 0.95 0.0 0 1 158.69 86.68
  Q 159.27 87.86 159.53 89.16
  Q 159.62 89.62 159.91 89.99
  Z"
/>
<path fill="#bc3d5e" d="
  M 80.58 89.66
  Q 80.68 89.20 80.73 88.73
  Q 80.83 87.82 81.73 88.00
  L 101.54 92.03
  A 0.53 0.53 0.0 0 1 101.95 92.67
  C 97.17 113.43 89.40 134.24 77.67 152.46
  A 0.48 0.47 -55.8 0 1 77.00 152.59
  Q 68.45 146.51 59.60 141.74
  Q 58.72 141.27 59.33 140.48
  C 61.51 137.63 63.67 134.50 65.42 131.32
  C 72.64 118.22 77.25 104.26 80.58 89.66
  Z"
/>
<path fill="#a83c68" d="
  M 435.77 116.25
  L 394.75 116.25
  Q 394.25 116.25 394.25 115.75
  L 394.25 96.75
  A 0.50 0.50 0.0 0 1 394.75 96.25
  L 544.50 96.25
  A 0.25 0.25 0.0 0 1 544.75 96.50
  L 544.75 115.75
  Q 544.75 116.25 544.25 116.25
  L 464.16 116.25
  A 1.23 1.22 13.5 0 0 463.07 116.91
  L 446.97 147.73
  A 0.57 0.57 0.0 0 0 447.49 148.57
  L 500.55 146.61
  A 0.47 0.47 0.0 0 0 500.85 145.79
  Q 496.65 141.96 493.14 137.66
  C 490.47 134.40 486.97 131.86 483.98 128.77
  Q 483.31 128.08 484.17 127.65
  L 488.50 125.51
  A 1.00 1.00 0.0 0 0 488.91 125.13
  Q 489.35 124.41 490.18 124.55
  Q 490.63 124.62 490.86 124.22
  L 491.06 123.87
  Q 491.38 123.32 492.00 123.44
  Q 492.52 123.54 492.82 123.12
  Q 493.05 122.81 493.39 122.63
  L 502.10 118.16
  Q 502.64 117.88 503.07 118.30
  Q 512.71 127.57 521.64 136.60
  C 525.19 140.18 528.35 144.08 531.60 147.90
  Q 537.68 155.04 543.92 164.19
  A 0.56 0.56 0.0 0 1 543.75 164.99
  L 524.78 176.49
  Q 523.57 177.22 523.10 175.89
  C 521.90 172.44 519.04 169.43 517.33 166.26
  A 0.89 0.88 73.8 0 0 516.51 165.80
  L 398.82 171.34
  A 0.88 0.87 84.6 0 1 397.91 170.58
  L 395.30 151.37
  Q 395.14 150.16 396.36 150.12
  L 421.97 149.35
  Q 422.47 149.34 422.69 148.88
  Q 430.56 132.83 436.23 116.90
  Q 436.46 116.25 435.77 116.25
  Z"
/>
<rect fill="#783c80" x="1231.00" y="121.00" width="68.74" height="19.50" rx="0.44"/>
<ellipse fill="#783c80" cx="0.00" cy="0.00" transform="translate(1435.43,144.63) rotate(-0.3)" rx="19.03" ry="18.04"/>


<rect fill="#bc3d5e" x="-3.62" y="-4.63" transform="translate(245.38,249.87) rotate(-0.2)" width="7.24" height="9.26" rx="0.35"/>
<rect fill="#bc3d5e" x="-3.64" y="-4.63" transform="translate(524.64,249.88) rotate(-0.2)" width="7.28" height="9.26" rx="0.27"/>
<path fill="#bc3d5e" d="
  M 586.89 305.76
  Q 591.30 311.45 596.54 316.54
  Q 597.27 317.25 596.24 317.25
  L 587.92 317.26
  Q 587.31 317.26 586.91 316.79
  Q 583.37 312.73 579.33 308.27
  Q 578.64 307.52 577.68 307.72
  Q 576.98 307.87 576.24 307.88
  Q 561.77 307.97 554.11 297.86
  Q 549.44 291.67 548.42 282.80
  Q 547.26 272.64 550.25 263.90
  Q 552.46 257.45 558.65 252.31
  Q 564.16 247.72 571.54 247.02
  Q 581.05 246.12 588.07 249.66
  C 593.56 252.41 598.13 257.69 600.17 263.56
  C 605.27 278.14 602.91 298.31 587.05 305.15
  Q 586.58 305.35 586.89 305.76
  Z
  M 558.72 264.74
  Q 554.36 276.44 558.27 288.86
  Q 559.71 293.41 564.15 297.44
  Q 567.77 300.72 573.27 301.24
  Q 581.88 302.06 587.31 296.79
  C 594.60 289.71 595.32 277.26 592.97 267.71
  Q 591.57 262.06 587.63 258.22
  C 581.93 252.67 573.38 251.83 566.56 255.42
  Q 561.12 258.28 558.72 264.74
  Z"
/>
<path fill="#bc3d5e" d="
  M 713.54 256.16
  L 701.28 306.17
  Q 701.14 306.75 700.54 306.75
  L 691.76 306.75
  Q 691.08 306.75 690.91 306.09
  L 676.36 247.94
  A 0.20 0.20 0.0 0 1 676.56 247.69
  L 684.10 247.80
  A 0.38 0.37 83.0 0 1 684.46 248.09
  L 696.26 295.60
  Q 696.77 297.66 697.28 295.60
  L 708.98 248.53
  Q 709.17 247.75 709.97 247.75
  L 717.41 247.75
  A 0.87 0.87 0.0 0 1 718.25 248.40
  L 730.05 295.75
  Q 730.52 297.63 730.98 295.75
  L 742.82 247.94
  Q 742.87 247.75 743.05 247.75
  L 750.69 247.75
  A 0.22 0.21 -82.5 0 1 750.89 248.02
  L 736.30 306.28
  A 0.62 0.62 0.0 0 1 735.70 306.75
  L 726.69 306.75
  Q 726.11 306.75 725.97 306.19
  L 713.82 256.16
  Q 713.68 255.59 713.54 256.16
  Z"
/>
<path fill="#bc3d5e" d="
  M 181.75 258.47
  L 181.75 306.48
  Q 181.75 306.74 181.49 306.74
  L 174.25 306.76
  A 0.26 0.25 -90.0 0 1 174.00 306.50
  L 174.00 248.25
  A 0.50 0.50 0.0 0 1 174.50 247.75
  L 184.16 247.75
  Q 184.75 247.75 185.03 248.27
  L 210.07 295.47
  Q 211.00 297.23 211.00 295.24
  L 211.00 248.00
  Q 211.00 247.75 211.25 247.75
  L 218.49 247.74
  Q 218.75 247.74 218.75 247.99
  L 218.75 306.25
  A 0.50 0.50 0.0 0 1 218.25 306.75
  L 208.46 306.75
  Q 207.86 306.75 207.60 306.21
  C 204.84 300.48 201.59 295.10 198.78 289.51
  Q 196.72 285.41 194.61 281.58
  C 190.41 273.97 186.64 266.07 182.12 258.37
  A 0.20 0.20 0.0 0 0 181.75 258.47
  Z"
/>
<path fill="#bc3d5e" d="
  M 303.83 275.80
  Q 305.48 276.19 306.88 277.15
  Q 314.67 282.48 313.75 292.79
  C 312.92 302.14 304.15 306.45 295.59 306.64
  Q 284.36 306.88 272.50 306.70
  A 0.25 0.25 0.0 0 1 272.25 306.45
  L 272.25 248.03
  Q 272.25 247.76 272.52 247.76
  Q 282.65 247.69 293.08 247.81
  Q 296.54 247.86 299.73 248.62
  Q 310.62 251.22 311.42 261.22
  Q 311.73 264.97 310.04 269.09
  C 308.97 271.71 306.59 273.61 303.84 274.24
  Q 300.50 275.00 303.83 275.80
  Z
  M 280.00 254.53
  L 280.00 271.93
  A 0.24 0.24 0.0 0 0 280.24 272.17
  L 293.41 272.17
  A 10.01 8.16 -0.0 0 0 303.42 264.01
  L 303.42 262.45
  A 10.01 8.16 0.0 0 0 293.41 254.29
  L 280.24 254.29
  A 0.24 0.24 0.0 0 0 280.00 254.53
  Z
  M 280.00 278.82
  L 280.00 299.96
  A 0.27 0.27 0.0 0 0 280.27 300.23
  L 294.88 300.23
  A 10.62 9.54 -0.0 0 0 305.50 290.69
  L 305.50 288.09
  A 10.62 9.54 0.0 0 0 294.88 278.55
  L 280.27 278.55
  A 0.27 0.27 0.0 0 0 280.00 278.82
  Z"
/>
<path fill="#bc3d5e" d="
  M 402.00 279.14
  L 402.00 306.36
  A 0.39 0.39 0.0 0 1 401.61 306.75
  L 394.39 306.74
  A 0.39 0.39 0.0 0 1 394.00 306.35
  L 394.01 248.13
  A 0.39 0.39 0.0 0 1 394.40 247.74
  L 401.61 247.75
  A 0.39 0.39 0.0 0 1 402.00 248.14
  L 402.00 271.61
  A 0.39 0.39 0.0 0 0 402.39 272.00
  L 430.62 272.00
  A 0.39 0.39 0.0 0 0 431.01 271.61
  L 431.02 248.13
  A 0.39 0.39 0.0 0 1 431.41 247.74
  L 438.60 247.75
  A 0.39 0.39 0.0 0 1 438.99 248.14
  L 439.00 306.35
  A 0.39 0.39 0.0 0 1 438.61 306.74
  L 431.39 306.76
  A 0.39 0.39 0.0 0 1 431.00 306.37
  L 431.02 279.14
  A 0.39 0.39 0.0 0 0 430.63 278.75
  L 402.39 278.75
  A 0.39 0.39 0.0 0 0 402.00 279.14
  Z"
/>
<path fill="#bc3d5e" d="
  M 913.40 291.75
  L 887.30 291.75
  A 0.37 0.37 0.0 0 0 886.95 292.00
  L 881.80 306.48
  A 0.37 0.37 0.0 0 1 881.45 306.73
  L 873.86 306.73
  A 0.37 0.37 0.0 0 1 873.51 306.23
  L 895.74 248.01
  A 0.37 0.37 0.0 0 1 896.08 247.77
  L 904.57 247.74
  A 0.37 0.37 0.0 0 1 904.92 247.98
  L 927.13 306.26
  A 0.37 0.37 0.0 0 1 926.78 306.76
  L 919.37 306.75
  A 0.37 0.37 0.0 0 1 919.02 306.51
  L 913.75 291.99
  A 0.37 0.37 0.0 0 0 913.40 291.75
  Z
  M 889.67 284.53
  A 0.35 0.35 0.0 0 0 890.00 285.00
  L 910.66 285.00
  A 0.35 0.35 0.0 0 0 910.99 284.53
  L 900.66 256.53
  A 0.35 0.35 0.0 0 0 900.00 256.53
  L 889.67 284.53
  Z"
/>
<rect fill="#bc3d5e" x="943.49" y="247.78" width="7.98" height="58.98" rx="0.27"/>
<path fill="#bc3d5e" d="
  M 982.75 256.72
  L 982.75 306.48
  Q 982.75 306.74 982.49 306.74
  L 975.26 306.76
  A 0.26 0.25 -0.0 0 1 975.00 306.51
  L 975.00 248.37
  Q 975.00 247.75 975.63 247.75
  L 986.22 247.75
  Q 986.75 247.75 986.94 248.24
  L 1001.46 286.85
  Q 1001.84 287.86 1002.22 286.86
  Q 1009.26 268.34 1016.31 249.57
  Q 1016.46 249.17 1016.47 248.73
  Q 1016.47 248.49 1016.57 248.27
  Q 1016.83 247.75 1017.41 247.75
  L 1028.25 247.75
  Q 1028.75 247.75 1028.75 248.25
  L 1028.75 306.48
  Q 1028.75 306.74 1028.49 306.74
  L 1021.25 306.76
  A 0.26 0.25 -90.0 0 1 1021.00 306.50
  L 1021.00 257.25
  Q 1021.00 255.13 1020.25 257.12
  L 1006.13 294.78
  Q 1005.86 295.50 1005.09 295.50
  L 998.21 295.51
  Q 997.61 295.51 997.50 294.91
  Q 997.40 294.34 997.21 293.85
  Q 990.37 275.51 983.31 256.62
  Q 982.75 255.13 982.75 256.72
  Z"
/>
<path fill="#bc3d5e" d="
  M 768.57 287.18
  Q 769.03 293.49 772.95 297.76
  Q 774.34 299.28 777.19 300.43
  Q 779.76 301.46 782.41 301.65
  Q 790.95 302.24 799.71 297.79
  Q 800.24 297.52 800.24 298.11
  L 800.25 303.72
  Q 800.25 304.30 799.72 304.53
  Q 789.06 309.03 777.98 307.30
  Q 771.20 306.24 765.99 300.44
  Q 761.90 295.88 761.22 289.30
  Q 760.58 283.11 761.73 277.53
  C 763.79 267.58 772.72 261.40 782.85 261.53
  C 796.63 261.70 802.97 273.26 801.63 285.93
  Q 801.57 286.50 801.00 286.50
  L 769.20 286.50
  Q 768.52 286.50 768.57 287.18
  Z
  M 769.25 280.82
  L 794.49 280.68
  A 0.24 0.24 0.0 0 0 794.73 280.44
  L 794.73 280.07
  A 12.43 12.06 89.7 0 0 782.61 267.71
  L 781.01 267.71
  A 12.43 12.06 89.7 0 0 769.01 280.21
  L 769.01 280.58
  A 0.24 0.24 0.0 0 0 769.25 280.82
  Z"
/>
<path fill="#bc3d5e" d="
  M 828.40 267.61
  Q 828.33 269.92 829.61 267.99
  C 830.09 267.26 830.30 266.61 831.00 266.00
  Q 836.91 260.88 844.55 261.61
  Q 855.63 262.68 857.51 273.84
  Q 858.21 278.00 858.23 282.18
  Q 858.27 293.76 858.25 306.50
  A 0.25 0.24 -88.9 0 1 858.00 306.75
  L 851.01 306.75
  A 0.27 0.27 0.0 0 1 850.74 306.48
  Q 850.75 293.28 850.76 281.07
  C 850.76 278.15 850.63 274.58 849.06 272.10
  Q 846.30 267.75 840.95 267.86
  Q 833.07 268.02 830.08 273.97
  Q 828.33 277.45 828.42 283.48
  Q 828.59 295.20 828.49 306.55
  A 0.21 0.21 0.0 0 1 828.27 306.76
  L 821.25 306.75
  A 0.25 0.25 0.0 0 1 821.00 306.50
  L 821.00 263.62
  Q 821.00 262.50 822.13 262.50
  L 827.29 262.50
  Q 828.74 262.50 828.61 263.95
  Q 828.47 265.48 828.40 267.61
  Z"
/>
<path fill="#bc3d5e" d="
  M 1079.27 301.00
  Q 1079.27 300.25 1078.82 300.86
  Q 1074.68 306.52 1068.06 307.52
  C 1060.53 308.65 1052.38 306.87 1049.98 298.51
  Q 1048.72 294.16 1049.74 289.83
  C 1051.16 283.78 1056.10 280.49 1062.00 279.48
  Q 1067.91 278.46 1078.71 278.79
  Q 1079.34 278.81 1079.32 278.18
  Q 1079.17 273.38 1076.53 270.90
  C 1070.76 265.47 1059.24 268.00 1052.78 271.09
  A 0.19 0.19 0.0 0 1 1052.51 270.92
  L 1052.49 264.98
  Q 1052.49 264.69 1052.76 264.59
  C 1062.16 260.77 1079.12 258.64 1084.35 270.32
  Q 1086.41 274.91 1086.44 279.57
  Q 1086.54 292.94 1086.51 306.53
  Q 1086.51 306.77 1086.27 306.77
  L 1079.50 306.73
  Q 1079.25 306.73 1079.25 306.49
  L 1079.27 301.00
  Z
  M 1066.24 301.77
  C 1075.44 301.71 1079.68 293.40 1079.29 285.02
  Q 1079.27 284.50 1078.75 284.49
  Q 1070.70 284.28 1064.08 285.13
  C 1060.53 285.58 1057.72 287.15 1056.87 290.95
  Q 1055.64 296.41 1059.20 299.59
  Q 1061.66 301.80 1066.24 301.77
  Z"
/>
<path fill="#bc3d5e" d="
  M 1155.93 300.69
  Q 1158.83 301.92 1163.04 301.59
  Q 1168.99 301.11 1174.11 298.44
  Q 1174.30 298.34 1174.29 298.55
  L 1174.24 304.58
  Q 1174.24 304.98 1173.87 305.13
  Q 1164.47 309.10 1155.00 307.17
  Q 1148.95 305.93 1144.09 300.18
  Q 1140.49 295.92 1139.73 289.38
  C 1138.99 282.98 1139.41 276.25 1142.96 270.73
  Q 1147.78 263.22 1157.15 261.84
  Q 1164.91 260.69 1173.81 264.11
  A 0.75 0.75 0.0 0 1 1174.30 264.88
  Q 1174.13 267.02 1174.34 269.14
  Q 1174.56 271.46 1172.50 270.38
  Q 1166.10 267.03 1158.96 267.93
  C 1152.78 268.71 1149.06 272.95 1147.77 278.70
  Q 1146.34 285.10 1147.74 290.68
  Q 1149.57 297.97 1155.93 300.69
  Z"
/>
<path fill="#bc3d5e" d="
  M 1223.08 264.59
  Q 1223.52 264.65 1223.84 264.93
  Q 1228.89 269.44 1230.21 273.50
  Q 1233.75 284.46 1230.42 295.15
  Q 1228.72 300.61 1223.43 304.52
  C 1219.08 307.74 1212.73 308.33 1207.51 307.47
  C 1201.30 306.45 1197.22 303.32 1194.39 297.93
  Q 1192.86 295.01 1192.28 292.08
  Q 1190.44 282.77 1192.84 275.10
  C 1196.77 262.52 1209.56 258.87 1221.00 263.31
  Q 1221.66 263.57 1222.13 264.09
  A 1.51 1.51 0.0 0 0 1223.08 264.59
  Z
  M 1223.18 292.91
  Q 1224.81 287.48 1224.07 281.02
  C 1223.20 273.37 1219.50 267.80 1211.33 267.70
  C 1204.46 267.62 1200.02 274.19 1199.43 280.47
  C 1198.86 286.64 1199.13 291.59 1202.48 297.14
  C 1204.65 300.74 1209.06 301.99 1213.12 301.61
  C 1217.87 301.17 1221.91 297.17 1223.18 292.91
  Z"
/>
<path fill="#bc3d5e" d="
  M 1258.75 268.23
  Q 1258.74 269.69 1259.54 268.47
  C 1262.91 263.33 1267.66 261.35 1273.80 261.58
  C 1279.64 261.80 1283.69 265.25 1285.65 270.39
  A 0.53 0.53 0.0 0 0 1286.62 270.45
  Q 1288.10 267.64 1290.66 265.29
  Q 1292.80 263.34 1295.67 262.50
  Q 1299.93 261.26 1303.49 261.63
  Q 1305.88 261.88 1308.56 263.27
  Q 1310.91 264.50 1312.22 266.45
  Q 1315.85 271.88 1315.91 278.98
  Q 1316.06 297.20 1315.96 306.35
  Q 1315.95 306.75 1315.55 306.75
  L 1309.03 306.75
  Q 1308.69 306.75 1308.70 306.41
  Q 1308.87 292.65 1308.65 281.65
  Q 1308.60 279.11 1308.25 276.12
  Q 1307.81 272.49 1305.80 270.46
  Q 1303.28 267.95 1299.40 267.88
  Q 1294.13 267.79 1291.07 271.01
  Q 1287.38 274.87 1287.30 282.40
  Q 1287.18 294.14 1287.28 306.42
  Q 1287.29 306.75 1286.96 306.75
  L 1280.29 306.75
  Q 1279.96 306.75 1279.97 306.43
  Q 1280.08 290.30 1279.90 278.37
  Q 1279.73 267.51 1269.67 267.88
  Q 1268.50 267.92 1267.43 268.34
  C 1266.40 268.73 1265.49 268.64 1264.58 269.37
  C 1262.42 271.11 1259.70 273.71 1259.39 276.58
  C 1259.22 278.13 1258.68 279.39 1258.69 281.02
  Q 1258.81 293.90 1258.73 306.23
  Q 1258.73 306.75 1258.21 306.75
  L 1252.25 306.75
  Q 1251.50 306.75 1251.50 306.00
  L 1251.50 262.77
  Q 1251.50 262.53 1251.74 262.52
  L 1258.51 262.44
  A 0.25 0.25 0.0 0 1 1258.76 262.69
  L 1258.75 268.23
  Z"
/>
<rect fill="#bc3d5e" x="241.74" y="262.47" width="7.26" height="44.28" rx="0.27"/>
<path fill="#bc3d5e" d="
  M 490.65 300.38
  C 489.90 301.47 489.43 302.62 488.40 303.51
  Q 481.39 309.54 472.00 307.25
  Q 469.36 306.60 466.96 304.73
  C 463.17 301.78 461.57 296.00 461.54 291.40
  Q 461.45 277.40 461.51 262.78
  Q 461.51 262.52 461.77 262.52
  L 468.48 262.45
  Q 468.79 262.44 468.79 262.75
  Q 468.61 283.43 468.90 291.44
  Q 469.05 295.32 471.51 298.59
  Q 473.25 300.88 476.33 301.36
  Q 485.38 302.77 490.12 294.37
  Q 490.96 292.90 491.05 287.50
  Q 491.28 274.26 491.26 263.03
  A 0.52 0.52 0.0 0 1 491.78 262.51
  L 497.99 262.49
  Q 498.50 262.49 498.50 263.00
  L 498.51 306.54
  A 0.24 0.23 -0.0 0 1 498.27 306.77
  L 491.43 306.72
  Q 491.26 306.72 491.26 306.55
  L 491.26 300.57
  Q 491.26 299.48 490.65 300.38
  Z"
/>
<path fill="#bc3d5e" d="
  M 651.28 301.03
  Q 651.28 300.22 650.80 300.87
  Q 645.33 308.31 635.76 307.79
  C 625.60 307.23 621.80 299.46 621.63 290.48
  Q 621.38 276.86 621.54 262.77
  Q 621.54 262.52 621.78 262.52
  L 628.48 262.45
  Q 628.74 262.44 628.74 262.69
  Q 628.78 274.71 628.74 285.87
  Q 628.72 290.67 629.82 295.39
  C 630.37 297.73 632.31 299.86 634.63 300.71
  C 640.52 302.87 647.09 300.67 649.94 294.85
  Q 651.41 291.85 651.33 287.32
  Q 651.13 274.60 651.30 262.74
  A 0.18 0.18 0.0 0 1 651.48 262.57
  L 658.45 262.43
  Q 658.75 262.42 658.75 262.72
  L 658.75 306.13
  A 0.63 0.62 0.0 0 1 658.12 306.75
  L 651.74 306.75
  Q 651.24 306.75 651.24 306.24
  L 651.28 301.03
  Z"
/>
<path fill="#bc3d5e" d="
  M 363.34 300.55
  C 362.45 301.45 361.79 302.57 360.87 303.45
  Q 354.90 309.13 345.65 307.48
  C 337.62 306.06 334.40 298.29 334.18 290.88
  Q 333.79 277.12 334.07 262.72
  A 0.22 0.21 -90.0 0 1 334.28 262.50
  L 341.02 262.49
  Q 341.29 262.49 341.28 262.75
  Q 341.19 280.59 341.25 286.25
  Q 341.29 289.90 341.92 293.92
  C 342.58 298.21 345.79 301.03 349.96 301.39
  Q 359.79 302.23 363.00 293.21
  C 363.89 290.71 364.01 287.01 364.01 284.14
  Q 363.99 273.05 364.01 262.76
  Q 364.01 262.50 364.26 262.50
  L 370.99 262.49
  Q 371.25 262.49 371.25 262.75
  L 371.25 306.50
  A 0.25 0.25 0.0 0 1 371.00 306.75
  L 364.25 306.75
  Q 364.01 306.75 364.01 306.51
  L 363.99 300.82
  Q 363.99 299.90 363.34 300.55
  Z"
/>
<rect fill="#bc3d5e" x="521.00" y="262.51" width="7.26" height="44.24" rx="0.35"/>

<rect fill="#bc3d5e" x="-4.17" y="-5.03" transform="translate(1114.38,301.76) rotate(0.1)" width="8.34" height="10.06" rx="0.27"/>
</svg>
